# xmcd
#
# Track frame offsets:
#	150
#	2428
#	17310
#	38052
#	54922
#	66165
#	82032
#	94264
#	112217
#	126118
#	141865
#	153795
#	167143
#	181486
#	193618
#	215709
#	230363
#	246745
#	265375
#	283769
#	307506
#
# Disc length: 4542 seconds
#
# Revision: 0
# Processed by: cddbd v1.5.1PL0 Copyright (c) Steve Scherf et al.
# Submitted via: dBpowerAMP V4.0
#
DISCID=2311bc15
DTITLE=Ausseer Hardbradler - The very best of
DYEAR=2005
DGENRE=Other
TTITLE0=Intro
TTITLE1=Tanzn tat i gern
TTITLE2=Hintn bei da Stadltür
TTITLE3=Aufitretln und Abiwedln (Reggae Version)
TTITLE4=Da Spanische-Schleinige
TTITLE5=I wü di
TTITLE6=Mei Freind des is a Luada
TTITLE7=Steirischer Brauch
TTITLE8=He Ausee
TTITLE9=Da Hirsch is auf da Pirsch
TTITLE10=Schau Schau
TTITLE11=Greane Au
TTITLE12=Kalwang im Winter
TTITLE13=Niglnoglnei
TTITLE14=Hoamhauser Rap
TTITLE15=Kalwang
TTITLE16=Mei Vader war a Wilderer (Papa Was A Rolling Stone)
TTITLE17=Sooo verliabt
TTITLE18=Dirndl, I liab di
TTITLE19=Is finsta drausst,...
TTITLE20=DATA
EXTD=Ausseer Hardbradler from Austria\n\nDominik Barilich
EXTT0=
EXTT1=
EXTT2=
EXTT3=
EXTT4=
EXTT5=
EXTT6=
EXTT7=
EXTT8=
EXTT9=
EXTT10=
EXTT11=
EXTT12=
EXTT13=
EXTT14=
EXTT15=
EXTT16=
EXTT17=
EXTT18=
EXTT19=
EXTT20=
PLAYORDER=
